<svg width="33" height="80" viewBox="0 0 33 80" fill="none" xmlns="http://www.w3.org/2000/svg">
<path d="M16.5 73.8983C16.1068 73.8983 15.7 73.8712 15.3068 73.8305C10.5746 73.3017 6.66951 69.3424 6.19493 64.5966C5.78815 60.4881 7.75426 56.6644 11.3068 54.5898L13.3271 53.4102V9.27457C13.3271 7.52541 14.7509 6.10168 16.5 6.10168C18.2492 6.10168 19.6729 7.52541 19.6729 9.27457V53.4102L21.6932 54.5898C24.8797 56.4474 26.8593 59.878 26.8593 63.539C26.8593 66.3051 25.7882 68.9085 23.8221 70.861C22.8646 71.8284 21.724 72.5952 20.4668 73.1167C19.2096 73.6382 17.8611 73.9039 16.5 73.8983Z" fill="#37B5A5"/>
<path d="M32.4729 59.5661C32.7983 60.8543 32.961 62.1966 32.961 63.539C32.961 64.6644 32.0525 65.5729 30.9271 65.5729C29.8017 65.5729 28.8932 64.6644 28.8932 63.539C28.8932 62.5221 28.7712 61.5187 28.5271 60.5424C28.2559 59.4577 28.9203 58.3458 30.0051 58.0746C31.0898 57.8034 32.2017 58.4678 32.4729 59.5661Z" fill="white"/>
<path d="M28.595 71.6746C29.4221 72.4203 29.4899 73.7085 28.7442 74.5492C25.5713 78.0746 21.2052 80 16.5272 80C15.9035 80 15.2662 79.9729 14.6289 79.8915C6.98146 79.0508 0.879762 72.8678 0.12044 65.1932C-0.47617 59.1864 2.28993 53.3288 7.22552 49.9525V9.27458C7.22552 4.16271 11.3882 0 16.5001 0C21.612 0 25.7747 4.16271 25.7747 9.27458V49.9525C26.5069 50.4542 27.1984 51.0237 27.8493 51.6339C28.2231 52.0098 28.4355 52.5168 28.441 53.047C28.4466 53.5771 28.2449 54.0885 27.8789 54.4721C27.513 54.8557 27.0117 55.0813 26.4819 55.1008C25.9521 55.1202 25.4356 54.932 25.0425 54.5763C24.3374 53.9119 23.5509 53.3153 22.7238 52.8407C22.0865 52.4746 21.7069 51.7966 21.7069 51.078V50.4271H16.5001C15.3747 50.4271 14.4662 49.5186 14.4662 48.3932C14.4662 47.2678 15.3747 46.3593 16.5001 46.3593H21.7069V38.5898H16.5001C15.3747 38.5898 14.4662 37.6814 14.4662 36.5559C14.4662 35.4305 15.3747 34.522 16.5001 34.522H21.7069V26.7525H16.5001C15.3747 26.7525 14.4662 25.8441 14.4662 24.7186C14.4662 23.5932 15.3747 22.6847 16.5001 22.6847H21.7069V14.9153H16.5001C15.3747 14.9153 14.4662 14.0068 14.4662 12.8814C14.4662 11.7559 15.3747 10.8475 16.5001 10.8475H21.7069V9.27458C21.6758 7.91423 21.1136 6.62005 20.1406 5.66893C19.1675 4.7178 17.8608 4.18528 16.5001 4.18528C15.1394 4.18528 13.8327 4.7178 12.8597 5.66893C11.8866 6.62005 11.3244 7.91423 11.2933 9.27458V51.078C11.2933 51.7966 10.9137 52.4746 10.2899 52.8271C6.0323 55.3085 3.68654 59.8915 4.17468 64.8C4.73061 70.4814 9.42214 75.2271 15.0764 75.8508C19.1442 76.3119 23.0086 74.8339 25.7204 71.8237C26.4662 70.9966 27.7543 70.9153 28.595 71.6746Z" fill="white"/>
<path d="M21.5034 58.617C22.161 59.2737 22.6827 60.0537 23.0386 60.9122C23.3946 61.7707 23.5778 62.691 23.5778 63.6204C23.5778 64.5498 23.3946 65.47 23.0386 66.3286C22.6827 67.1871 22.161 67.967 21.5034 68.6238C20.1203 70.0068 18.317 70.6984 16.5 70.6984C14.6831 70.6984 12.8797 70.0068 11.4966 68.6238C10.839 67.967 10.3173 67.1871 9.96136 66.3286C9.60542 65.47 9.4222 64.5498 9.4222 63.6204C9.4222 62.691 9.60542 61.7707 9.96136 60.9122C10.3173 60.0537 10.839 59.2737 11.4966 58.617C12.2831 57.817 13.5712 57.817 14.3712 58.617C15.1712 59.417 15.1712 60.6916 14.3712 61.4916C13.1915 62.6712 13.1915 64.5695 14.3712 65.7492C15.5509 66.9289 17.4627 66.9289 18.6288 65.7492C19.8085 64.5695 19.8085 62.6712 18.6288 61.4916C17.8288 60.6916 17.8288 59.417 18.6288 58.617C19.4288 57.817 20.717 57.817 21.5034 58.617ZM4.10678 16.1899V40C4.10678 41.1255 3.19831 42.0339 2.07288 42.0339C0.947461 42.0339 0.0389862 41.1255 0.0389862 40V16.1899C0.0389862 15.0645 0.947461 14.156 2.07288 14.156C3.19831 14.156 4.10678 15.0645 4.10678 16.1899ZM4.10678 8.74581V10.0882C4.10678 11.2136 3.19831 12.1221 2.07288 12.1221C0.947461 12.1221 0.0389862 11.2136 0.0389862 10.0882V8.74581C0.0389862 7.62039 0.947461 6.71191 2.07288 6.71191C3.19831 6.71191 4.10678 7.62039 4.10678 8.74581Z" fill="white"/>
</svg>
